<svg xmlns="http://www.w3.org/2000/svg" width="24" height="24" fill="none"><path fill="#000" d="M13.266 6.492a2.534 2.534 0 0 0-2.532-2.532 2.534 2.534 0 0 0-2.53 2.532 2.534 2.534 0 0 0 2.53 2.53 2.534 2.534 0 0 0 2.532-2.53Zm-4.125 0c0-.88.715-1.594 1.593-1.594.88 0 1.594.715 1.594 1.594 0 .879-.715 1.593-1.594 1.593a1.596 1.596 0 0 1-1.593-1.593ZM6.644 12.552a2.514 2.514 0 0 0 1.258-1.472 2.514 2.514 0 0 0-.152-1.931A2.514 2.514 0 0 0 6.277 7.89a2.514 2.514 0 0 0-1.931.152 2.514 2.514 0 0 0-1.258 1.473 2.514 2.514 0 0 0 .152 1.93 2.538 2.538 0 0 0 2.257 1.383c.394 0 .786-.093 1.147-.277Zm-1.642-.74a1.583 1.583 0 0 1-.927-.791 1.583 1.583 0 0 1-.095-1.216c.131-.404.412-.734.791-.927a1.586 1.586 0 0 1 1.216-.096c.405.132.734.413.927.792.194.38.228.811.096 1.216a1.583 1.583 0 0 1-.792.927c-.38.193-.81.227-1.216.096ZM6.01 18.504a2.53 2.53 0 1 0 2.975-4.095 2.514 2.514 0 0 0-1.884-.452 2.514 2.514 0 0 0-1.652 1.012 2.534 2.534 0 0 0 .56 3.535Zm.198-2.984a1.583 1.583 0 0 1 1.292-.657 1.595 1.595 0 0 1 1.286 2.53c-.516.711-1.515.87-2.226.353a1.595 1.595 0 0 1-.352-2.226ZM13.976 18.987c.516 0 1.037-.157 1.485-.483a2.534 2.534 0 0 0 .56-3.535 2.515 2.515 0 0 0-1.652-1.012 2.515 2.515 0 0 0-1.884.452 2.514 2.514 0 0 0-1.012 1.652 2.529 2.529 0 0 0 2.503 2.926Zm-.94-3.82c.345-.25.766-.351 1.186-.284a1.595 1.595 0 0 1 .687 2.863c-.71.516-1.709.358-2.225-.353a1.595 1.595 0 0 1 .352-2.226ZM15.191 7.89a2.514 2.514 0 0 0-1.473 1.259 2.515 2.515 0 0 0-.152 1.93 2.515 2.515 0 0 0 1.258 1.473 2.52 2.52 0 0 0 1.931.152 2.514 2.514 0 0 0 1.473-1.258c.307-.602.361-1.288.152-1.93a2.514 2.514 0 0 0-1.258-1.473 2.514 2.514 0 0 0-1.93-.152Zm1.506.988c.379.193.66.522.792.927.131.405.097.837-.096 1.216s-.523.66-.927.792a1.583 1.583 0 0 1-1.216-.096 1.583 1.583 0 0 1-.792-.927 1.583 1.583 0 0 1 .096-1.216 1.596 1.596 0 0 1 2.143-.696ZM12.342 12a1.61 1.61 0 0 0-1.608-1.607A1.61 1.61 0 0 0 9.127 12a1.61 1.61 0 0 0 1.607 1.607A1.61 1.61 0 0 0 12.342 12Zm-2.277 0a.67.67 0 1 1 1.34.001.67.67 0 0 1-1.34-.001Z"/><path fill="#000" d="M23.863 20.707a2.788 2.788 0 0 0-1.985-.822c-.75 0-1.454.292-1.984.822a3.696 3.696 0 0 1-2.63 1.09h-2.13a10.733 10.733 0 0 0 3.19-2.207A10.664 10.664 0 0 0 21.47 12a10.69 10.69 0 0 0-1.75-5.876.469.469 0 1 0-.784.514A9.757 9.757 0 0 1 20.531 12c0 5.402-4.395 9.797-9.797 9.797C5.332 21.797.938 17.402.938 12c0-5.402 4.394-9.797 9.796-9.797 1.918 0 3.775.554 5.37 1.601a.469.469 0 1 0 .515-.783 10.69 10.69 0 0 0-5.885-1.755 10.664 10.664 0 0 0-7.59 3.144A10.664 10.664 0 0 0 0 12c0 2.867 1.117 5.563 3.144 7.59a10.664 10.664 0 0 0 7.59 3.144h6.53a4.627 4.627 0 0 0 3.293-1.364 1.857 1.857 0 0 1 1.321-.547c.5 0 .969.194 1.322.547a.469.469 0 0 0 .663-.663Z"/><path fill="#000" d="M17.996 5.213a.472.472 0 0 0 .469-.468.472.472 0 0 0-.8-.332.472.472 0 0 0 0 .663.472.472 0 0 0 .331.137Z"/></svg>
